<svg width="22" height="20" viewBox="0 0 22 20" fill="none" xmlns="http://www.w3.org/2000/svg">
<path d="M22 7.63942C22.0005 7.34364 21.9218 7.05302 21.7721 6.7971C21.6224 6.54118 21.4069 6.32909 21.1476 6.18241L11.8813 0.73564C11.6143 0.581318 11.3107 0.5 11.0015 0.5C10.6923 0.5 10.3886 0.581318 10.1216 0.73564L0.84157 6.18241C0.585128 6.33312 0.372692 6.54733 0.22514 6.80398C0.0775886 7.06063 0 7.35088 0 7.64623C0 7.94157 0.0775886 8.23183 0.22514 8.48848C0.372692 8.74513 0.585128 8.95933 0.84157 9.11005L3.48122 10.6351V14.4615C3.48281 14.7605 3.56205 15.0541 3.71133 15.3141C3.86061 15.574 4.0749 15.7915 4.3336 15.9457L10.1766 19.2819C10.4375 19.4249 10.7308 19.5 11.029 19.5C11.3272 19.5 11.6205 19.4249 11.8813 19.2819L17.7243 15.9457C17.983 15.7915 18.1973 15.574 18.3466 15.3141C18.4959 15.0541 18.5751 14.7605 18.5767 14.4615V10.5943L20.2815 9.60026V13.3041H22V7.63942ZM16.8719 14.4479L11.0015 17.7976L5.19974 14.4615V11.6428L10.1216 14.5432C10.3896 14.6949 10.6928 14.7746 11.0015 14.7746C11.3101 14.7746 11.6134 14.6949 11.8813 14.5432L16.8582 11.6019L16.8719 14.4479ZM11.0015 13.0726L1.72145 7.6258L11.0015 2.16542L20.2815 7.61219L11.0015 13.0726Z" fill="#1D4C7C"/>
</svg>
