<svg width="29" height="19" viewBox="0 0 29 19" fill="none" xmlns="http://www.w3.org/2000/svg">
<path d="M0 17.3171V1.68286C0 1.66476 0.0271428 1.49286 0.0814286 1.16714L9.28286 9.03857L0.108571 17.86C0.0361905 17.6067 0 17.4257 0 17.3171ZM1.22143 0.0814285C1.3481 0.0271428 1.5019 0 1.68286 0H26.4643C26.6271 0 26.79 0.0271428 26.9529 0.0814285L17.7243 7.98L16.5029 8.95714L14.0871 10.9386L11.6714 8.95714L10.45 7.98L1.22143 0.0814285ZM1.24857 18.9186L10.5043 10.0429L14.0871 12.9471L17.67 10.0429L26.9257 18.9186C26.781 18.9729 26.6271 19 26.4643 19H1.68286C1.5381 19 1.39333 18.9729 1.24857 18.9186ZM18.8914 9.03857L28.0657 1.16714C28.12 1.33 28.1471 1.5019 28.1471 1.68286V17.3171C28.1471 17.48 28.12 17.661 28.0657 17.86L18.8914 9.03857Z" fill="#1D4C7C"/>
</svg>
