<svg width="19" height="19" viewBox="0 0 19 19" fill="none" xmlns="http://www.w3.org/2000/svg">
<path d="M9.5 0.791629C7.21483 0.768408 5.01392 1.65344 3.381 3.25223C1.74807 4.85101 0.816731 7.03272 0.791667 9.31788C0.800472 11.1238 1.38141 12.8805 2.45105 14.3356C3.52069 15.7907 5.02398 16.8693 6.745 17.4166C7.18042 17.4958 7.33875 17.2345 7.33875 17.005C7.33875 16.7754 7.33875 16.2687 7.33875 15.5562C4.91625 16.0708 4.40167 14.4162 4.40167 14.4162C4.2404 13.8968 3.89756 13.4528 3.43583 13.1654C2.64417 12.6429 3.49917 12.6508 3.49917 12.6508C3.77281 12.6874 4.03461 12.7854 4.26495 12.9376C4.49529 13.0898 4.68819 13.2922 4.82917 13.5295C5.07485 13.9556 5.47796 14.2681 5.95176 14.3999C6.42555 14.5316 6.93214 14.4721 7.3625 14.2341C7.40676 13.8006 7.60308 13.3967 7.91667 13.0941C5.985 12.8804 3.95833 12.152 3.95833 8.88246C3.94106 8.02958 4.25619 7.20343 4.83708 6.57871C4.57253 5.84648 4.60377 5.03996 4.92417 4.33038C4.92417 4.33038 5.66042 4.1008 7.29917 5.20121C8.72567 4.82108 10.2268 4.82108 11.6533 5.20121C13.3158 4.1008 14.0283 4.33038 14.0283 4.33038C14.3487 5.03996 14.38 5.84648 14.1154 6.57871C14.7098 7.19198 15.042 8.01259 15.0417 8.86663C15.0417 12.1441 12.9992 12.8645 11.0833 13.0783C11.2931 13.282 11.4552 13.5296 11.5578 13.8034C11.6605 14.0771 11.7012 14.3702 11.6771 14.6616V16.997C11.6771 16.997 11.8354 17.4958 12.2708 17.4087C13.987 16.858 15.4852 15.7791 16.5515 14.3261C17.6179 12.873 18.1977 11.1202 18.2083 9.31788C18.1833 7.03272 17.2519 4.85101 15.619 3.25223C13.9861 1.65344 11.7852 0.768408 9.5 0.791629Z" fill="#1D4C7C"/>
</svg>
