<svg width="19" height="19" viewBox="0 0 19 19" fill="none" xmlns="http://www.w3.org/2000/svg">
<path d="M4.25295 18.9996H0.313839V6.31453H4.25295V18.9996ZM2.28127 4.58417C1.02167 4.58417 0 3.54087 0 2.28127C9.01566e-09 1.67624 0.240348 1.09599 0.668169 0.668169C1.09599 0.240348 1.67624 0 2.28127 0C2.8863 0 3.46655 0.240348 3.89438 0.668169C4.3222 1.09599 4.56254 1.67624 4.56254 2.28127C4.56254 3.54087 3.54045 4.58417 2.28127 4.58417ZM15.0651 18.9996V12.8246C15.0651 11.3529 15.0354 9.46565 13.0171 9.46565C10.9691 9.46565 10.6553 11.0645 10.6553 12.7185V18.9996H6.7204V6.31453H10.4983V8.04489H10.5535C11.0794 7.04824 12.364 5.99645 14.2805 5.99645C18.2671 5.99645 19 8.62167 19 12.0315V18.9996H15.0651Z" fill="#1D4C7C"/>
</svg>
