<svg width="120" height="120" viewBox="0 0 120 120" fill="none" xmlns="http://www.w3.org/2000/svg">
<path fill-rule="evenodd" clip-rule="evenodd" d="M0 107.118L49.936 0.0300293L52.4557 1.20499L2.51972 108.293L0 107.118Z" fill="#1C1A92"/>
<path fill-rule="evenodd" clip-rule="evenodd" d="M69.3711 59.8674H10.2917V57.0872H69.3711V59.8674Z" fill="#1C1A92"/>
<path fill-rule="evenodd" clip-rule="evenodd" d="M50.2062 14.7992L70.7681 58.8943L68.2484 60.0693L47.6865 15.9742L50.2062 14.7992Z" fill="#1C1A92"/>
<path d="M71.1158 82.8041C72.6217 78.8284 75.1818 75.5756 78.7961 73.0456C82.4103 70.5156 86.7776 69.2506 91.8978 69.2506C96.4758 69.2506 100.542 70.2746 104.096 72.3227C107.71 74.3708 110.511 77.2923 112.499 81.0873C114.547 84.8823 115.571 89.3098 115.571 94.3697C115.571 99.4297 114.547 103.887 112.499 107.743C110.511 111.538 107.71 114.489 104.096 116.597C100.542 118.646 96.4758 119.67 91.8978 119.67C86.7776 119.67 82.3802 118.405 78.7057 115.875C75.0915 113.345 72.5615 110.092 71.1158 106.116V118.947H67.0497V52.0828H71.1158V82.8041ZM111.415 94.3697C111.415 89.9122 110.571 86.0569 108.885 82.8041C107.198 79.5513 104.819 77.0815 101.747 75.3949C98.7348 73.648 95.241 72.7745 91.2653 72.7745C87.4703 72.7745 84.0368 73.6781 80.9646 75.4852C77.8925 77.2321 75.483 79.7621 73.7361 83.0752C71.9892 86.328 71.1158 90.0929 71.1158 94.3697C71.1158 98.7069 71.9892 102.532 73.7361 105.845C75.483 109.098 77.8925 111.628 80.9646 113.435C84.0368 115.182 87.4703 116.055 91.2653 116.055C95.241 116.055 98.7348 115.182 101.747 113.435C104.819 111.688 107.198 109.188 108.885 105.935C110.571 102.683 111.415 98.8273 111.415 94.3697Z" fill="#21ABA5"/>
<path fill-rule="evenodd" clip-rule="evenodd" d="M56.7134 106.998L119.706 77.6238L120 78.2537L57.0071 107.628L56.7134 106.998Z" fill="#1C1A92"/>
</svg>
