<svg width="432" height="431" viewBox="0 0 432 431" fill="none" xmlns="http://www.w3.org/2000/svg">
<path fill-rule="evenodd" clip-rule="evenodd" d="M0 385.181L179.613 0L188.676 4.22618L9.06308 389.407L0 385.181Z" fill="#1C1A92"/>
<path fill-rule="evenodd" clip-rule="evenodd" d="M249.518 215.227H37.0179V205.227H249.518V215.227Z" fill="#1C1A92"/>
<path fill-rule="evenodd" clip-rule="evenodd" d="M180.585 53.1227L254.543 211.727L245.48 215.953L171.522 57.3489L180.585 53.1227Z" fill="#1C1A92"/>
<path d="M255.793 297.727C261.209 283.427 270.418 271.727 283.418 262.627C296.418 253.527 312.126 248.977 330.543 248.977C347.009 248.977 361.634 252.66 374.418 260.027C387.418 267.393 397.493 277.902 404.643 291.552C412.009 305.202 415.693 321.127 415.693 339.327C415.693 357.527 412.009 373.56 404.643 387.427C397.493 401.077 387.418 411.693 374.418 419.277C361.634 426.643 347.009 430.327 330.543 430.327C312.126 430.327 296.309 425.777 283.093 416.677C270.093 407.577 260.993 395.877 255.793 381.577V427.727H241.168V187.227H255.793V297.727ZM400.743 339.327C400.743 323.293 397.709 309.427 391.643 297.727C385.576 286.027 377.018 277.143 365.968 271.077C355.134 264.793 342.568 261.652 328.268 261.652C314.618 261.652 302.268 264.902 291.218 271.402C280.168 277.685 271.501 286.785 265.218 298.702C258.934 310.402 255.793 323.943 255.793 339.327C255.793 354.927 258.934 368.685 265.218 380.602C271.501 392.302 280.168 401.402 291.218 407.902C302.268 414.185 314.618 417.327 328.268 417.327C342.568 417.327 355.134 414.185 365.968 407.902C377.018 401.618 385.576 392.627 391.643 380.927C397.709 369.227 400.743 355.36 400.743 339.327Z" fill="#21ABA5"/>
<path fill-rule="evenodd" clip-rule="evenodd" d="M203.99 384.748L430.566 279.094L431.623 281.359L205.046 387.014L203.99 384.748Z" fill="#1C1A92"/>
</svg>
