<svg width="173" height="173" viewBox="0 0 173 173" fill="none" xmlns="http://www.w3.org/2000/svg">
<path fill-rule="evenodd" clip-rule="evenodd" d="M0 154.072L71.8451 0L75.4703 1.69047L3.62523 155.763L0 154.072Z" fill="#1C1A92"/>
<path fill-rule="evenodd" clip-rule="evenodd" d="M99.8072 86.0906H14.8072V82.0906H99.8072V86.0906Z" fill="#1C1A92"/>
<path fill-rule="evenodd" clip-rule="evenodd" d="M72.2339 21.2491L101.817 84.6906L98.1919 86.3811L68.6086 22.9396L72.2339 21.2491Z" fill="#1C1A92"/>
<path d="M102.317 119.091C104.484 113.371 108.167 108.691 113.367 105.051C118.567 101.411 124.85 99.5906 132.217 99.5906C138.804 99.5906 144.654 101.064 149.767 104.011C154.967 106.957 158.997 111.161 161.857 116.621C164.804 122.081 166.277 128.451 166.277 135.731C166.277 143.011 164.804 149.424 161.857 154.971C158.997 160.431 154.967 164.677 149.767 167.711C144.654 170.657 138.804 172.131 132.217 172.131C124.85 172.131 118.524 170.311 113.237 166.671C108.037 163.031 104.397 158.351 102.317 152.631V171.091H96.467V74.8906H102.317V119.091ZM160.297 135.731C160.297 129.317 159.084 123.771 156.657 119.091C154.23 114.411 150.807 110.857 146.387 108.431C142.054 105.917 137.027 104.661 131.307 104.661C125.847 104.661 120.907 105.961 116.487 108.561C112.067 111.074 108.6 114.714 106.087 119.481C103.574 124.161 102.317 129.577 102.317 135.731C102.317 141.971 103.574 147.474 106.087 152.241C108.6 156.921 112.067 160.561 116.487 163.161C120.907 165.674 125.847 166.931 131.307 166.931C137.027 166.931 142.054 165.674 146.387 163.161C150.807 160.647 154.23 157.051 156.657 152.371C159.084 147.691 160.297 142.144 160.297 135.731Z" fill="#21ABA5"/>
<path fill-rule="evenodd" clip-rule="evenodd" d="M81.5957 153.899L172.226 111.637L172.649 112.544L82.0183 154.806L81.5957 153.899Z" fill="#1C1A92"/>
</svg>
