<svg width="433" height="431" viewBox="0 0 433 431" fill="none" xmlns="http://www.w3.org/2000/svg">
<path fill-rule="evenodd" clip-rule="evenodd" d="M0.64917 385.181L180.262 0L189.325 4.22618L9.71225 389.407L0.64917 385.181Z" fill="#45EBA5"/>
<path fill-rule="evenodd" clip-rule="evenodd" d="M250.167 215.227H37.667V205.227H250.167V215.227Z" fill="#45EBA5"/>
<path fill-rule="evenodd" clip-rule="evenodd" d="M181.234 53.1227L255.192 211.727L246.129 215.953L172.171 57.3489L181.234 53.1227Z" fill="#45EBA5"/>
<path d="M256.442 297.727C261.859 283.427 271.067 271.727 284.067 262.627C297.067 253.527 312.775 248.977 331.192 248.977C347.659 248.977 362.284 252.66 375.067 260.027C388.067 267.393 398.142 277.902 405.292 291.552C412.659 305.202 416.342 321.127 416.342 339.327C416.342 357.527 412.659 373.56 405.292 387.427C398.142 401.077 388.067 411.693 375.067 419.277C362.284 426.643 347.659 430.327 331.192 430.327C312.775 430.327 296.959 425.777 283.742 416.677C270.742 407.577 261.642 395.877 256.442 381.577V427.727H241.817V187.227H256.442V297.727ZM401.392 339.327C401.392 323.293 398.359 309.427 392.292 297.727C386.225 286.027 377.667 277.143 366.617 271.077C355.784 264.793 343.217 261.652 328.917 261.652C315.267 261.652 302.917 264.902 291.867 271.402C280.817 277.685 272.15 286.785 265.867 298.702C259.584 310.402 256.442 323.943 256.442 339.327C256.442 354.927 259.584 368.685 265.867 380.602C272.15 392.302 280.817 401.402 291.867 407.902C302.917 414.185 315.267 417.327 328.917 417.327C343.217 417.327 355.784 414.185 366.617 407.902C377.667 401.618 386.225 392.627 392.292 380.927C398.359 369.227 401.392 355.36 401.392 339.327Z" fill="#21ABA5"/>
<path fill-rule="evenodd" clip-rule="evenodd" d="M204.639 384.748L431.216 279.094L432.272 281.359L205.695 387.014L204.639 384.748Z" fill="#45EBA5" style="mix-blend-mode:screen"/>
</svg>
