<svg width="121" height="120" viewBox="0 0 121 120" fill="none" xmlns="http://www.w3.org/2000/svg">
<path fill-rule="evenodd" clip-rule="evenodd" d="M0.324585 107.334L50.2606 0.245514L52.7803 1.42048L2.84431 108.509L0.324585 107.334Z" fill="#45EBA5"/>
<path fill-rule="evenodd" clip-rule="evenodd" d="M69.6956 60.0829H10.6163V57.3027H69.6956V60.0829Z" fill="#45EBA5"/>
<path fill-rule="evenodd" clip-rule="evenodd" d="M50.5308 15.0147L71.0927 59.1098L68.573 60.2848L48.0111 16.1897L50.5308 15.0147Z" fill="#45EBA5"/>
<path d="M71.4402 83.0196C72.9462 79.0439 75.5063 75.791 79.1205 73.2611C82.7348 70.7311 87.102 69.4661 92.2222 69.4661C96.8003 69.4661 100.866 70.4901 104.42 72.5382C108.035 74.5863 110.836 77.5078 112.824 81.3028C114.872 85.0978 115.896 89.5253 115.896 94.5852C115.896 99.6452 114.872 104.103 112.824 107.958C110.836 111.753 108.035 114.705 104.42 116.813C100.866 118.861 96.8003 119.885 92.2222 119.885C87.102 119.885 82.7047 118.62 79.0302 116.09C75.4159 113.56 72.8859 110.307 71.4402 106.332V119.162H67.3742V52.2983H71.4402V83.0196ZM111.739 94.5852C111.739 90.1276 110.896 86.2724 109.209 83.0196C107.523 79.7667 105.143 77.297 102.071 75.6103C99.0592 73.8634 95.5654 72.99 91.5897 72.99C87.7948 72.99 84.3612 73.8936 81.2891 75.7007C78.217 77.4476 75.8075 79.9776 74.0606 83.2907C72.3137 86.5435 71.4402 90.3083 71.4402 94.5852C71.4402 98.9224 72.3137 102.747 74.0606 106.061C75.8075 109.313 78.217 111.843 81.2891 113.65C84.3612 115.397 87.7948 116.271 91.5897 116.271C95.5654 116.271 99.0592 115.397 102.071 113.65C105.143 111.904 107.523 109.404 109.209 106.151C110.896 102.898 111.739 99.0428 111.739 94.5852Z" fill="#21ABA5"/>
<path fill-rule="evenodd" clip-rule="evenodd" d="M57.0378 107.213L120.031 77.8393L120.325 78.4692L57.3316 107.843L57.0378 107.213Z" fill="#45EBA5" style="mix-blend-mode:screen"/>
</svg>
