<svg width="19" height="20" viewBox="0 0 19 20" fill="none" xmlns="http://www.w3.org/2000/svg">
<path d="M11.0833 5.25V3.66667H7.91667V5.25H11.0833ZM3.16667 6.83333V15.5417H15.8333V6.83333H3.16667ZM15.8333 5.25C16.7121 5.25 17.4167 5.95458 17.4167 6.83333V15.5417C17.4167 16.4204 16.7121 17.125 15.8333 17.125H3.16667C2.28792 17.125 1.58333 16.4204 1.58333 15.5417L1.59125 6.83333C1.59125 5.95458 2.28792 5.25 3.16667 5.25H6.33333V3.66667C6.33333 2.78792 7.03792 2.08333 7.91667 2.08333H11.0833C11.9621 2.08333 12.6667 2.78792 12.6667 3.66667V5.25H15.8333Z" fill="#1D4C7C"/>
</svg>
